<?xml version="1.0" encoding="UTF-8" standalone="no"?>
<!-- Created with Inkscape (http://www.inkscape.org/) -->

<svg
   width="1920"
   height="1080"
   viewBox="0 0 507.99999 285.75001"
   version="1.1"
   id="svg5"
   inkscape:version="1.1.1 (3bf5ae0d25, 2021-09-20)"
   sodipodi:docname="fig1.svg"
   xmlns:inkscape="http://www.inkscape.org/namespaces/inkscape"
   xmlns:sodipodi="http://sodipodi.sourceforge.net/DTD/sodipodi-0.dtd"
   xmlns="http://www.w3.org/2000/svg"
   xmlns:svg="http://www.w3.org/2000/svg"
   xmlns:ns1="http://wanglongqi.github.io/WriteTeX">
  <sodipodi:namedview
     id="namedview7"
     pagecolor="#ffffff"
     bordercolor="#cccccc"
     borderopacity="1"
     inkscape:pageshadow="0"
     inkscape:pageopacity="1"
     inkscape:pagecheckerboard="0"
     inkscape:document-units="mm"
     showgrid="false"
     units="px"
     inkscape:zoom="1.0859962"
     inkscape:cx="1107.2783"
     inkscape:cy="573.20644"
     inkscape:window-width="1920"
     inkscape:window-height="1051"
     inkscape:window-x="-9"
     inkscape:window-y="-9"
     inkscape:window-maximized="1"
     inkscape:current-layer="layer1" />
  <defs
     id="defs2">
    <marker
       style="overflow:visible"
       id="Tail"
       refX="0.0"
       refY="0.0"
       orient="auto"
       inkscape:stockid="Tail"
       inkscape:isstock="true">
      <g
         transform="scale(-1.2)"
         id="g1556">
        <path
           style="fill:none;fill-rule:evenodd;stroke:context-stroke;stroke-width:0.8;stroke-linecap:round"
           d="M -3.8048674,-3.9585227 L 0.54352094,0"
           id="path1544" />
        <path
           style="fill:none;fill-rule:evenodd;stroke:context-stroke;stroke-width:0.8;stroke-linecap:round"
           d="M -1.2866832,-3.9585227 L 3.0617053,0"
           id="path1546" />
        <path
           style="fill:none;fill-rule:evenodd;stroke:context-stroke;stroke-width:0.8;stroke-linecap:round"
           d="M 1.3053582,-3.9585227 L 5.6537466,0"
           id="path1548" />
        <path
           style="fill:none;fill-rule:evenodd;stroke:context-stroke;stroke-width:0.8;stroke-linecap:round"
           d="M -3.8048674,4.1775838 L 0.54352094,0.21974226"
           id="path1550" />
        <path
           style="fill:none;fill-rule:evenodd;stroke:context-stroke;stroke-width:0.8;stroke-linecap:round"
           d="M -1.2866832,4.1775838 L 3.0617053,0.21974226"
           id="path1552" />
        <path
           style="fill:none;fill-rule:evenodd;stroke:context-stroke;stroke-width:0.8;stroke-linecap:round"
           d="M 1.3053582,4.1775838 L 5.6537466,0.21974226"
           id="path1554" />
      </g>
    </marker>
    <marker
       style="overflow:visible"
       id="marker2399"
       refX="0.0"
       refY="0.0"
       orient="auto"
       inkscape:stockid="Arrow2Mstart"
       inkscape:isstock="true">
      <path
         transform="scale(0.6) translate(0,0)"
         d="M 8.7185878,4.0337352 L -2.2072895,0.016013256 L 8.7185884,-4.0017078 C 6.9730900,-1.6296469 6.9831476,1.6157441 8.7185878,4.0337352 z "
         style="stroke:context-stroke;fill-rule:evenodd;fill:context-stroke;stroke-width:0.62500000;stroke-linejoin:round"
         id="path2397" />
    </marker>
    <marker
       style="overflow:visible"
       id="marker2389"
       refX="0.0"
       refY="0.0"
       orient="auto"
       inkscape:stockid="Arrow1Sstart"
       inkscape:isstock="true">
      <path
         transform="scale(0.2) translate(6,0)"
         style="fill-rule:evenodd;fill:context-stroke;stroke:context-stroke;stroke-width:1.0pt"
         d="M 0.0,0.0 L 5.0,-5.0 L -12.5,0.0 L 5.0,5.0 L 0.0,0.0 z "
         id="path2387" />
    </marker>
    <marker
       style="overflow:visible"
       id="marker2379"
       refX="0.0"
       refY="0.0"
       orient="auto"
       inkscape:stockid="Arrow1Mstart"
       inkscape:isstock="true">
      <path
         transform="scale(0.4) translate(10,0)"
         style="fill-rule:evenodd;fill:context-stroke;stroke:context-stroke;stroke-width:1.0pt"
         d="M 0.0,0.0 L 5.0,-5.0 L -12.5,0.0 L 5.0,5.0 L 0.0,0.0 z "
         id="path2377" />
    </marker>
    <marker
       style="overflow:visible"
       id="Arrow1Mstart"
       refX="0.0"
       refY="0.0"
       orient="auto"
       inkscape:stockid="Arrow1Mstart"
       inkscape:isstock="true">
      <path
         transform="scale(0.4) translate(10,0)"
         style="fill-rule:evenodd;fill:context-stroke;stroke:context-stroke;stroke-width:1.0pt"
         d="M 0.0,0.0 L 5.0,-5.0 L -12.5,0.0 L 5.0,5.0 L 0.0,0.0 z "
         id="path1514" />
    </marker>
    <marker
       style="overflow:visible"
       id="marker2361"
       refX="0.0"
       refY="0.0"
       orient="auto"
       inkscape:stockid="Arrow2Lstart"
       inkscape:isstock="true">
      <path
         transform="scale(1.1) translate(1,0)"
         d="M 8.7185878,4.0337352 L -2.2072895,0.016013256 L 8.7185884,-4.0017078 C 6.9730900,-1.6296469 6.9831476,1.6157441 8.7185878,4.0337352 z "
         style="stroke:context-stroke;fill-rule:evenodd;fill:context-stroke;stroke-width:0.62500000;stroke-linejoin:round"
         id="path2359" />
    </marker>
    <marker
       style="overflow:visible"
       id="marker2351"
       refX="0.0"
       refY="0.0"
       orient="auto"
       inkscape:stockid="Arrow2Mstart"
       inkscape:isstock="true">
      <path
         transform="scale(0.6) translate(0,0)"
         d="M 8.7185878,4.0337352 L -2.2072895,0.016013256 L 8.7185884,-4.0017078 C 6.9730900,-1.6296469 6.9831476,1.6157441 8.7185878,4.0337352 z "
         style="stroke:context-stroke;fill-rule:evenodd;fill:context-stroke;stroke-width:0.62500000;stroke-linejoin:round"
         id="path2349" />
    </marker>
    <marker
       style="overflow:visible"
       id="TriangleInL"
       refX="0.0"
       refY="0.0"
       orient="auto"
       inkscape:stockid="TriangleInL"
       inkscape:isstock="true">
      <path
         transform="scale(-0.8)"
         style="fill-rule:evenodd;fill:context-stroke;stroke:context-stroke;stroke-width:1.0pt"
         d="M 5.77,0.0 L -2.88,5.0 L -2.88,-5.0 L 5.77,0.0 z "
         id="path1641" />
    </marker>
    <marker
       style="overflow:visible"
       id="Arrow1Lstart"
       refX="0.0"
       refY="0.0"
       orient="auto"
       inkscape:stockid="Arrow1Lstart"
       inkscape:isstock="true">
      <path
         transform="scale(0.8) translate(12.5,0)"
         style="fill-rule:evenodd;fill:context-stroke;stroke:context-stroke;stroke-width:1.0pt"
         d="M 0.0,0.0 L 5.0,-5.0 L -12.5,0.0 L 5.0,5.0 L 0.0,0.0 z "
         id="path1508" />
    </marker>
    <marker
       style="overflow:visible"
       id="Arrow2Lstart"
       refX="0.0"
       refY="0.0"
       orient="auto"
       inkscape:stockid="Arrow2Lstart"
       inkscape:isstock="true">
      <path
         transform="scale(1.1) translate(1,0)"
         d="M 8.7185878,4.0337352 L -2.2072895,0.016013256 L 8.7185884,-4.0017078 C 6.9730900,-1.6296469 6.9831476,1.6157441 8.7185878,4.0337352 z "
         style="stroke:context-stroke;fill-rule:evenodd;fill:context-stroke;stroke-width:0.62500000;stroke-linejoin:round"
         id="path1526" />
    </marker>
    <marker
       style="overflow:visible"
       id="Arrow1Sstart"
       refX="0.0"
       refY="0.0"
       orient="auto"
       inkscape:stockid="Arrow1Sstart"
       inkscape:isstock="true">
      <path
         transform="scale(0.2) translate(6,0)"
         style="fill-rule:evenodd;fill:context-stroke;stroke:context-stroke;stroke-width:1.0pt"
         d="M 0.0,0.0 L 5.0,-5.0 L -12.5,0.0 L 5.0,5.0 L 0.0,0.0 z "
         id="path1520" />
    </marker>
    <marker
       style="overflow:visible"
       id="Arrow2Mstart"
       refX="0.0"
       refY="0.0"
       orient="auto"
       inkscape:stockid="Arrow2Mstart"
       inkscape:isstock="true">
      <path
         transform="scale(0.6) translate(0,0)"
         d="M 8.7185878,4.0337352 L -2.2072895,0.016013256 L 8.7185884,-4.0017078 C 6.9730900,-1.6296469 6.9831476,1.6157441 8.7185878,4.0337352 z "
         style="stroke:context-stroke;fill-rule:evenodd;fill:context-stroke;stroke-width:0.62500000;stroke-linejoin:round"
         id="path1532" />
    </marker>
    <marker
       style="overflow:visible;"
       id="Arrow2Lend"
       refX="0.0"
       refY="0.0"
       orient="auto"
       inkscape:stockid="Arrow2Lend"
       inkscape:isstock="true">
      <path
         transform="scale(1.1) rotate(180) translate(1,0)"
         d="M 8.7185878,4.0337352 L -2.2072895,0.016013256 L 8.7185884,-4.0017078 C 6.9730900,-1.6296469 6.9831476,1.6157441 8.7185878,4.0337352 z "
         style="stroke:context-stroke;fill-rule:evenodd;fill:context-stroke;stroke-width:0.62500000;stroke-linejoin:round;"
         id="path1529" />
    </marker>
    <clipPath
       clipPathUnits="userSpaceOnUse"
       id="clipPath2256">
      <rect
         style="fill:none;stroke:#000000;stroke-width:1.37413;stroke-miterlimit:4;stroke-dasharray:none"
         id="rect2258"
         width="375.30624"
         height="250.56674"
         x="46.477135"
         y="20.652147" />
    </clipPath>
    <marker
       style="overflow:visible"
       id="marker2361-4"
       refX="0"
       refY="0"
       orient="auto"
       inkscape:stockid="Arrow2Lstart"
       inkscape:isstock="true">
      <path
         transform="matrix(1.1,0,0,1.1,1.1,0)"
         d="M 8.7185878,4.0337352 -2.2072895,0.01601326 8.7185884,-4.0017078 c -1.7454984,2.3720609 -1.7354408,5.6174519 -6e-7,8.035443 z"
         style="fill:context-stroke;fill-rule:evenodd;stroke:context-stroke;stroke-width:0.625;stroke-linejoin:round"
         id="path2359-1" />
    </marker>
  </defs>
  <g
     inkscape:groupmode="layer"
     id="layer2"
     inkscape:label="Capa 2"
     style="display:inline">
    <rect
       style="fill:none;stroke-width:1;stroke-miterlimit:4;stroke-dasharray:none"
       id="rect1920"
       width="400.72488"
       height="253.69049"
       x="46.290066"
       y="20.46508" />
  </g>
  <g
     inkscape:label="Capa 1"
     inkscape:groupmode="layer"
     id="layer1"
     style="display:inline">
    <path
       style="fill:none;stroke:#000000;stroke-width:1.5;stroke-linecap:butt;stroke-linejoin:miter;stroke-miterlimit:4;stroke-dasharray:none;stroke-opacity:1;marker-start:url(#marker2361)"
       d="M 73.714685,12.499951 V 177.59198"
       id="path474" />
    <path
       style="display:inline;fill:none;stroke:#000000;stroke-width:1.8735;stroke-linecap:butt;stroke-linejoin:miter;stroke-miterlimit:4;stroke-dasharray:none;stroke-opacity:1;marker-start:url(#marker2361-4)"
       d="M 424.7154,177.59198 H 73.714685"
       id="path474-4" />
    <path
       id="path2977"
       style="fill:none;stroke:#0000ff;font-variation-settings:normal;opacity:1;vector-effect:none;fill-opacity:1;stroke-width:1;stroke-linecap:butt;stroke-linejoin:miter;stroke-miterlimit:4;stroke-dasharray:none;stroke-dashoffset:0;stroke-opacity:1;-inkscape-stroke:none;stop-color:#000000;stop-opacity:1"
       d="m 223.35839,177.59198 a 75.14077,68.463165 0 0 1 -75.14077,68.46317 75.14077,68.463165 0 0 1 -75.140769,-68.46317 75.14077,68.463165 0 0 1 75.140769,-68.46317 75.14077,68.463165 0 0 1 75.14077,68.46317 z" />
    <path
       id="path2977-4"
       style="font-variation-settings:normal;display:inline;vector-effect:none;fill:none;fill-opacity:1;stroke:#0000ff;stroke-width:1.487;stroke-linecap:butt;stroke-linejoin:miter;stroke-miterlimit:4;stroke-dasharray:none;stroke-dashoffset:0;stroke-opacity:1;-inkscape-stroke:none;stop-color:#000000"
       d="M 295.30004,177.59198 A 111.04394,102.43807 0 0 1 184.25609,280.03006 111.04394,102.43807 0 0 1 73.212152,177.59199 111.04394,102.43807 0 0 1 184.25609,75.153916 111.04394,102.43807 0 0 1 295.30004,177.59198 Z" />
    <path
       style="fill:none;stroke:#ff0000;stroke-width:1;stroke-linecap:butt;stroke-linejoin:miter;stroke-opacity:1;stroke-miterlimit:4;stroke-dasharray:none"
       d="M 73.714683,177.59198 254.96519,11.025522"
       id="path3462" />
    <path
       style="fill:none;stroke:#ff0000;stroke-width:1;stroke-linecap:butt;stroke-linejoin:miter;stroke-opacity:1;stroke-miterlimit:4;stroke-dasharray:none"
       d="m 88.63486,163.83237 h 41.9056 v -38.46013"
       id="path3595" />
    <path
       style="fill:none;stroke:#000000;stroke-width:1;stroke-linecap:butt;stroke-linejoin:miter;stroke-opacity:1;stroke-miterlimit:4;stroke-dasharray:none"
       d="m 220.68271,149.70592 c 0,0 33.33498,-0.77524 53.23261,-6.54641 19.89762,-5.77117 32.81815,-12.48985 41.34569,-23.08469"
       id="path3663" />
    <path
       style="fill:none;stroke:#000000;stroke-width:1;stroke-linecap:butt;stroke-linejoin:miter;stroke-opacity:1;stroke-miterlimit:4;stroke-dasharray:none"
       d="m 305.69982,121.45301 9.56119,-1.37819 0.68911,9.30279"
       id="path3665" />
    <path
       style="fill:none;stroke:#000000;stroke-width:1;stroke-linecap:butt;stroke-linejoin:miter;stroke-opacity:1;stroke-miterlimit:4;stroke-dasharray:none"
       d="m 261.94228,101.55539 c 0,0 5.25434,-5.340485 17.48579,-6.201852 12.23145,-0.861369 18.43331,7.580042 18.95012,7.666182"
       id="path3667" />
    <path
       style="fill:none;stroke:#000000;stroke-width:1;stroke-linecap:butt;stroke-linejoin:miter;stroke-opacity:1;stroke-miterlimit:4;stroke-dasharray:none"
       d="m 291.01348,103.36427 7.36471,-0.34455 -1.78734,-7.041691"
       id="path3669" />
    <path
       style="fill:none;stroke:#000000;stroke-width:1;stroke-linecap:butt;stroke-linejoin:miter;stroke-opacity:1;stroke-miterlimit:4;stroke-dasharray:none"
       d="m 232.35426,35.617605 c 0,0 6.63254,4.608322 11.1978,4.95287 4.56525,0.344548 7.92459,-0.55989 9.8196,-1.378191"
       id="path3671" />
    <path
       style="fill:none;stroke:#000000;stroke-width:1;stroke-linecap:butt;stroke-linejoin:miter;stroke-opacity:1;stroke-miterlimit:4;stroke-dasharray:none"
       d="m 247.42822,37.986369 5.94344,1.205915 -3.01479,4.479118"
       id="path3673" />
    <text
       xml:space="preserve"
       style="font-style:normal;font-variant:normal;font-weight:normal;font-stretch:normal;font-size:14.5247px;line-height:1.25;font-family:serif;-inkscape-font-specification:'serif, Normal';font-variant-ligatures:normal;font-variant-caps:normal;font-variant-numeric:normal;font-variant-east-asian:normal;fill:#000000;fill-opacity:1;stroke:none;stroke-width:0.363117"
       x="301.52234"
       y="112.13049"
       id="text6947"><tspan
         sodipodi:role="line"
         id="tspan6945"
         style="font-style:normal;font-variant:normal;font-weight:normal;font-stretch:normal;font-size:14.5247px;font-family:serif;-inkscape-font-specification:'serif, Normal';font-variant-ligatures:normal;font-variant-caps:normal;font-variant-numeric:normal;font-variant-east-asian:normal;stroke-width:0.363117"
         x="301.52234"
         y="112.13049">Yield Surfaces</tspan></text>
    <text
       xml:space="preserve"
       style="font-style:normal;font-variant:normal;font-weight:normal;font-stretch:normal;font-size:14.1233px;line-height:1.25;font-family:serif;-inkscape-font-specification:'serif, Normal';font-variant-ligatures:normal;font-variant-caps:normal;font-variant-numeric:normal;font-variant-east-asian:normal;display:inline;fill:#000000;fill-opacity:1;stroke:none;stroke-width:0.353083"
       x="304.94443"
       y="54.515469"
       id="text6947-1"><tspan
         sodipodi:role="line"
         id="tspan6945-5"
         style="font-style:normal;font-variant:normal;font-weight:normal;font-stretch:normal;font-size:14.1233px;font-family:serif;-inkscape-font-specification:'serif, Normal';font-variant-ligatures:normal;font-variant-caps:normal;font-variant-numeric:normal;font-variant-east-asian:normal;stroke-width:0.353083"
         x="304.94443"
         y="54.515469">Yield surface equation</tspan></text>
    <text
       xml:space="preserve"
       style="font-style:normal;font-variant:normal;font-weight:normal;font-stretch:normal;font-size:8.81944px;line-height:1.25;font-family:serif;-inkscape-font-specification:'serif, Normal';font-variant-ligatures:normal;font-variant-caps:normal;font-variant-numeric:normal;font-variant-east-asian:normal;display:inline;fill:#000000;fill-opacity:1;stroke:none;stroke-width:0.264583"
       x="134.42703"
       y="150.43422"
       id="text6947-6"><tspan
         sodipodi:role="line"
         id="tspan6945-4"
         style="font-style:normal;font-variant:normal;font-weight:normal;font-stretch:normal;font-size:8.81944444px;font-family:serif;-inkscape-font-specification:'serif, Normal';font-variant-ligatures:normal;font-variant-caps:normal;font-variant-numeric:normal;font-variant-east-asian:normal;stroke-width:0.264583"
         x="134.42703"
         y="150.43422">M</tspan><tspan
         sodipodi:role="line"
         style="font-style:normal;font-variant:normal;font-weight:normal;font-stretch:normal;font-size:8.81944444px;font-family:serif;-inkscape-font-specification:'serif, Normal';font-variant-ligatures:normal;font-variant-caps:normal;font-variant-numeric:normal;font-variant-east-asian:normal;stroke-width:0.264583"
         x="134.42703"
         y="163.66335"
         id="tspan2907" /></text>
    <g
       ns1:text="$q^2-M^2[p'(p'_0-p')]=0$"
       transform="matrix(1.6557526,0,0,1.6557526,-17.179571,-107.71135)"
       id="g1801">
      <g
         id="surface1">
        <g
           style="fill:#000000;fill-opacity:1"
           id="g1728">
          <path
             style="stroke:none"
             d="m 4.5,-4.296875 c 0,-0.046875 -0.03125,-0.09375 -0.09375,-0.09375 -0.109375,0 -0.515625,0.390625 -0.671875,0.6875 C 3.515625,-4.25 3.125,-4.40625 2.796875,-4.40625 c -1.171875,0 -2.390625,1.46875 -2.390625,2.921875 0,0.96875 0.578125,1.59375 1.3125,1.59375 0.421875,0 0.8125,-0.234375 1.171875,-0.59375 -0.09375,0.34375 -0.421875,1.6875 -0.453125,1.78125 -0.078125,0.28125 -0.15625,0.3125 -0.71875,0.328125 -0.125,0 -0.21875,0 -0.21875,0.203125 0,0 0,0.109375 0.125,0.109375 0.3125,0 0.671875,-0.03125 1,-0.03125 0.328125,0 0.6875,0.03125 1.03125,0.03125 0.046875,0 0.171875,0 0.171875,-0.203125 C 3.828125,1.625 3.734375,1.625 3.5625,1.625 3.09375,1.625 3.09375,1.5625 3.09375,1.46875 3.09375,1.390625 3.109375,1.328125 3.125,1.25 Z m -2.75,4.1875 c -0.609375,0 -0.640625,-0.765625 -0.640625,-0.9375 0,-0.484375 0.28125,-1.5625 0.453125,-1.984375 0.3125,-0.734375 0.828125,-1.15625 1.234375,-1.15625 0.65625,0 0.796875,0.8125 0.796875,0.875 0,0.0625 -0.546875,2.25 -0.578125,2.28125 C 2.859375,-0.75 2.296875,-0.109375 1.75,-0.109375 Z m 0,0"
             transform="translate(178.585,110.99)"
             id="path1726" />
        </g>
        <g
           style="fill:#000000;fill-opacity:1"
           id="g1732">
          <path
             style="stroke:none"
             d="M 3.515625,-1.265625 H 3.28125 c -0.015625,0.15625 -0.09375,0.5625 -0.1875,0.625 C 3.046875,-0.59375 2.515625,-0.59375 2.40625,-0.59375 H 1.125 c 0.734375,-0.640625 0.984375,-0.84375 1.390625,-1.171875 0.515625,-0.40625 1,-0.84375 1,-1.5 0,-0.84375 -0.734375,-1.359375 -1.625,-1.359375 -0.859375,0 -1.453125,0.609375 -1.453125,1.25 0,0.34375 0.296875,0.390625 0.375,0.390625 0.15625,0 0.359375,-0.125 0.359375,-0.375 0,-0.125 -0.046875,-0.375 -0.40625,-0.375 C 0.984375,-4.21875 1.453125,-4.375 1.78125,-4.375 c 0.703125,0 1.0625,0.546875 1.0625,1.109375 0,0.609375 -0.4375,1.078125 -0.65625,1.328125 L 0.515625,-0.265625 C 0.4375,-0.203125 0.4375,-0.1875 0.4375,0 h 2.875 z m 0,0"
             transform="translate(183.389,107.375)"
             id="path1730" />
        </g>
        <g
           style="fill:#000000;fill-opacity:1"
           id="g1736">
          <path
             style="stroke:none"
             d="m 6.5625,-2.296875 c 0.171875,0 0.359375,0 0.359375,-0.203125 0,-0.1875 -0.1875,-0.1875 -0.359375,-0.1875 H 1.171875 c -0.171875,0 -0.34375,0 -0.34375,0.1875 0,0.203125 0.171875,0.203125 0.34375,0.203125 z m 0,0"
             transform="translate(190.073,110.99)"
             id="path1734" />
        </g>
        <g
           style="fill:#000000;fill-opacity:1"
           id="g1740">
          <path
             style="stroke:none"
             d="M 9.234375,-6.046875 C 9.328125,-6.40625 9.34375,-6.5 10.09375,-6.5 c 0.21875,0 0.3125,0 0.3125,-0.203125 0,-0.109375 -0.09375,-0.109375 -0.265625,-0.109375 h -1.3125 c -0.265625,0 -0.28125,0 -0.390625,0.1875 L 4.796875,-0.9375 4.015625,-6.578125 C 3.984375,-6.8125 3.96875,-6.8125 3.703125,-6.8125 H 2.34375 c -0.1875,0 -0.296875,0 -0.296875,0.1875 0,0.125 0.09375,0.125 0.28125,0.125 0.140625,0 0.3125,0.015625 0.4375,0.015625 0.15625,0.03125 0.21875,0.046875 0.21875,0.171875 0,0.03125 -0.015625,0.0625 -0.046875,0.1875 l -1.265625,5.0625 c -0.09375,0.40625 -0.265625,0.71875 -1.078125,0.75 -0.046875,0 -0.171875,0.015625 -0.171875,0.1875 0,0.09375 0.0625,0.125 0.140625,0.125 0.3125,0 0.65625,-0.03125 1,-0.03125 C 1.890625,-0.03125 2.25,0 2.578125,0 c 0.046875,0 0.1875,0 0.1875,-0.203125 0,-0.109375 -0.109375,-0.109375 -0.1875,-0.109375 -0.5625,0 -0.671875,-0.203125 -0.671875,-0.4375 0,-0.0625 0,-0.125 0.03125,-0.234375 L 3.296875,-6.40625 H 3.3125 l 0.859375,6.171875 C 4.1875,-0.109375 4.203125,0 4.3125,0 4.421875,0 4.484375,-0.109375 4.53125,-0.171875 l 4.03125,-6.3125 h 0.015625 l -1.4375,5.703125 c -0.09375,0.390625 -0.109375,0.46875 -0.90625,0.46875 -0.15625,0 -0.265625,0 -0.265625,0.1875 C 5.96875,0 6.078125,0 6.109375,0 6.390625,0 7.0625,-0.03125 7.34375,-0.03125 7.75,-0.03125 8.1875,0 8.59375,0 8.65625,0 8.78125,0 8.78125,-0.203125 8.78125,-0.3125 8.6875,-0.3125 8.5,-0.3125 c -0.359375,0 -0.640625,0 -0.640625,-0.171875 0,-0.046875 0,-0.0625 0.046875,-0.25 z m 0,0"
             transform="translate(200.035,110.99)"
             id="path1738" />
        </g>
        <g
           style="fill:#000000;fill-opacity:1"
           id="g1744">
          <path
             style="stroke:none"
             d="M 3.515625,-1.265625 H 3.28125 c -0.015625,0.15625 -0.09375,0.5625 -0.1875,0.625 C 3.046875,-0.59375 2.515625,-0.59375 2.40625,-0.59375 H 1.125 c 0.734375,-0.640625 0.984375,-0.84375 1.390625,-1.171875 0.515625,-0.40625 1,-0.84375 1,-1.5 0,-0.84375 -0.734375,-1.359375 -1.625,-1.359375 -0.859375,0 -1.453125,0.609375 -1.453125,1.25 0,0.34375 0.296875,0.390625 0.375,0.390625 0.15625,0 0.359375,-0.125 0.359375,-0.375 0,-0.125 -0.046875,-0.375 -0.40625,-0.375 C 0.984375,-4.21875 1.453125,-4.375 1.78125,-4.375 c 0.703125,0 1.0625,0.546875 1.0625,1.109375 0,0.609375 -0.4375,1.078125 -0.65625,1.328125 L 0.515625,-0.265625 C 0.4375,-0.203125 0.4375,-0.1875 0.4375,0 h 2.875 z m 0,0"
             transform="translate(210.787,107.375)"
             id="path1742" />
        </g>
        <g
           style="fill:#000000;fill-opacity:1"
           id="g1748">
          <path
             style="stroke:none"
             d="M 2.546875,2.5 V 2.09375 h -0.96875 v -9.171875 h 0.96875 v -0.40625 h -1.375 V 2.5 Z m 0,0"
             transform="translate(215.256,110.99)"
             id="path1746" />
        </g>
        <g
           style="fill:#000000;fill-opacity:1"
           id="g1752">
          <path
             style="stroke:none"
             d="M 0.453125,1.21875 C 0.375,1.5625 0.34375,1.625 -0.09375,1.625 c -0.109375,0 -0.21875,0 -0.21875,0.1875 0,0.078125 0.046875,0.125 0.125,0.125 0.265625,0 0.5625,-0.03125 0.828125,-0.03125 0.34375,0 0.671875,0.03125 1,0.03125 0.046875,0 0.171875,0 0.171875,-0.203125 C 1.8125,1.625 1.71875,1.625 1.578125,1.625 c -0.5,0 -0.5,-0.0625 -0.5,-0.15625 0,-0.125 0.421875,-1.75 0.484375,-2 0.125,0.296875 0.40625,0.640625 0.921875,0.640625 1.15625,0 2.40625,-1.453125 2.40625,-2.921875 0,-0.9375 -0.578125,-1.59375 -1.328125,-1.59375 -0.5,0 -0.984375,0.359375 -1.3125,0.75 -0.09375,-0.546875 -0.53125,-0.75 -0.890625,-0.75 -0.46875,0 -0.65625,0.390625 -0.734375,0.5625 C 0.4375,-3.5 0.3125,-2.90625 0.3125,-2.875 c 0,0.109375 0.09375,0.109375 0.109375,0.109375 0.109375,0 0.109375,-0.015625 0.171875,-0.234375 0.171875,-0.703125 0.375,-1.1875 0.734375,-1.1875 0.171875,0 0.3125,0.078125 0.3125,0.453125 0,0.234375 -0.03125,0.34375 -0.078125,0.515625 z m 1.75,-4.328125 C 2.265625,-3.375 2.546875,-3.65625 2.71875,-3.8125 c 0.359375,-0.296875 0.640625,-0.375 0.8125,-0.375 0.390625,0 0.640625,0.34375 0.640625,0.9375 0,0.59375 -0.328125,1.734375 -0.515625,2.109375 -0.34375,0.703125 -0.8125,1.03125 -1.1875,1.03125 C 1.8125,-0.109375 1.6875,-0.9375 1.6875,-1 c 0,-0.015625 0,-0.03125 0.03125,-0.15625 z m 0,0"
             transform="translate(218.023,110.99)"
             id="path1750" />
        </g>
        <g
           style="fill:#000000;fill-opacity:1"
           id="g1756">
          <path
             style="stroke:none"
             d="m 2.015625,-3.296875 c 0.0625,-0.109375 0.0625,-0.171875 0.0625,-0.21875 0,-0.21875 -0.1875,-0.375 -0.40625,-0.375 -0.265625,0 -0.34375,0.21875 -0.375,0.328125 L 0.375,-0.546875 c -0.015625,0.015625 -0.046875,0.09375 -0.046875,0.109375 0,0.078125 0.21875,0.15625 0.28125,0.15625 0.046875,0 0.046875,-0.015625 0.09375,-0.125 z m 0,0"
             transform="translate(223.036,107.375)"
             id="path1754" />
        </g>
        <g
           style="fill:#000000;fill-opacity:1"
           id="g1760">
          <path
             style="stroke:none"
             d="m 3.296875,2.390625 c 0,-0.03125 0,-0.046875 -0.171875,-0.21875 C 1.890625,0.921875 1.5625,-0.96875 1.5625,-2.5 c 0,-1.734375 0.375,-3.46875 1.609375,-4.703125 0.125,-0.125 0.125,-0.140625 0.125,-0.171875 0,-0.078125 -0.03125,-0.109375 -0.09375,-0.109375 -0.109375,0 -1,0.6875 -1.59375,1.953125 -0.5,1.09375 -0.625,2.203125 -0.625,3.03125 0,0.78125 0.109375,1.984375 0.65625,3.125 C 2.25,1.84375 3.09375,2.5 3.203125,2.5 c 0.0625,0 0.09375,-0.03125 0.09375,-0.109375 z m 0,0"
             transform="translate(225.831,110.99)"
             id="path1758" />
        </g>
        <g
           style="fill:#000000;fill-opacity:1"
           id="g1764">
          <path
             style="stroke:none"
             d="M 0.453125,1.21875 C 0.375,1.5625 0.34375,1.625 -0.09375,1.625 c -0.109375,0 -0.21875,0 -0.21875,0.1875 0,0.078125 0.046875,0.125 0.125,0.125 0.265625,0 0.5625,-0.03125 0.828125,-0.03125 0.34375,0 0.671875,0.03125 1,0.03125 0.046875,0 0.171875,0 0.171875,-0.203125 C 1.8125,1.625 1.71875,1.625 1.578125,1.625 c -0.5,0 -0.5,-0.0625 -0.5,-0.15625 0,-0.125 0.421875,-1.75 0.484375,-2 0.125,0.296875 0.40625,0.640625 0.921875,0.640625 1.15625,0 2.40625,-1.453125 2.40625,-2.921875 0,-0.9375 -0.578125,-1.59375 -1.328125,-1.59375 -0.5,0 -0.984375,0.359375 -1.3125,0.75 -0.09375,-0.546875 -0.53125,-0.75 -0.890625,-0.75 -0.46875,0 -0.65625,0.390625 -0.734375,0.5625 C 0.4375,-3.5 0.3125,-2.90625 0.3125,-2.875 c 0,0.109375 0.09375,0.109375 0.109375,0.109375 0.109375,0 0.109375,-0.015625 0.171875,-0.234375 0.171875,-0.703125 0.375,-1.1875 0.734375,-1.1875 0.171875,0 0.3125,0.078125 0.3125,0.453125 0,0.234375 -0.03125,0.34375 -0.078125,0.515625 z m 1.75,-4.328125 C 2.265625,-3.375 2.546875,-3.65625 2.71875,-3.8125 c 0.359375,-0.296875 0.640625,-0.375 0.8125,-0.375 0.390625,0 0.640625,0.34375 0.640625,0.9375 0,0.59375 -0.328125,1.734375 -0.515625,2.109375 -0.34375,0.703125 -0.8125,1.03125 -1.1875,1.03125 C 1.8125,-0.109375 1.6875,-0.9375 1.6875,-1 c 0,-0.015625 0,-0.03125 0.03125,-0.15625 z m 0,0"
             transform="translate(229.705,110.99)"
             id="path1762" />
        </g>
        <g
           style="fill:#000000;fill-opacity:1"
           id="g1768">
          <path
             style="stroke:none"
             d="m 2.015625,-3.296875 c 0.0625,-0.109375 0.0625,-0.171875 0.0625,-0.21875 0,-0.21875 -0.1875,-0.375 -0.40625,-0.375 -0.265625,0 -0.34375,0.21875 -0.375,0.328125 L 0.375,-0.546875 c -0.015625,0.015625 -0.046875,0.09375 -0.046875,0.109375 0,0.078125 0.21875,0.15625 0.28125,0.15625 0.046875,0 0.046875,-0.015625 0.09375,-0.125 z m 0,0"
             transform="translate(234.718,107.375)"
             id="path1766" />
        </g>
        <g
           style="fill:#000000;fill-opacity:1"
           id="g1772">
          <path
             style="stroke:none"
             d="M 3.59375,-2.21875 C 3.59375,-2.984375 3.5,-3.546875 3.1875,-4.03125 2.96875,-4.34375 2.53125,-4.625 1.984375,-4.625 c -1.625,0 -1.625,1.90625 -1.625,2.40625 0,0.5 0,2.359375 1.625,2.359375 1.609375,0 1.609375,-1.859375 1.609375,-2.359375 z M 1.984375,-0.0625 c -0.328125,0 -0.75,-0.1875 -0.890625,-0.75 C 1,-1.21875 1,-1.796875 1,-2.3125 1,-2.828125 1,-3.359375 1.09375,-3.734375 1.25,-4.28125 1.6875,-4.4375 1.984375,-4.4375 c 0.375,0 0.734375,0.234375 0.859375,0.640625 0.109375,0.375 0.125,0.875 0.125,1.484375 0,0.515625 0,1.03125 -0.09375,1.46875 -0.140625,0.640625 -0.609375,0.78125 -0.890625,0.78125 z m 0,0"
             transform="translate(234.718,113.463)"
             id="path1770" />
        </g>
        <g
           style="fill:#000000;fill-opacity:1"
           id="g1776">
          <path
             style="stroke:none"
             d="m 6.5625,-2.296875 c 0.171875,0 0.359375,0 0.359375,-0.203125 0,-0.1875 -0.1875,-0.1875 -0.359375,-0.1875 H 1.171875 c -0.171875,0 -0.34375,0 -0.34375,0.1875 0,0.203125 0.171875,0.203125 0.34375,0.203125 z m 0,0"
             transform="translate(241.401,110.99)"
             id="path1774" />
        </g>
        <g
           style="fill:#000000;fill-opacity:1"
           id="g1780">
          <path
             style="stroke:none"
             d="M 0.453125,1.21875 C 0.375,1.5625 0.34375,1.625 -0.09375,1.625 c -0.109375,0 -0.21875,0 -0.21875,0.1875 0,0.078125 0.046875,0.125 0.125,0.125 0.265625,0 0.5625,-0.03125 0.828125,-0.03125 0.34375,0 0.671875,0.03125 1,0.03125 0.046875,0 0.171875,0 0.171875,-0.203125 C 1.8125,1.625 1.71875,1.625 1.578125,1.625 c -0.5,0 -0.5,-0.0625 -0.5,-0.15625 0,-0.125 0.421875,-1.75 0.484375,-2 0.125,0.296875 0.40625,0.640625 0.921875,0.640625 1.15625,0 2.40625,-1.453125 2.40625,-2.921875 0,-0.9375 -0.578125,-1.59375 -1.328125,-1.59375 -0.5,0 -0.984375,0.359375 -1.3125,0.75 -0.09375,-0.546875 -0.53125,-0.75 -0.890625,-0.75 -0.46875,0 -0.65625,0.390625 -0.734375,0.5625 C 0.4375,-3.5 0.3125,-2.90625 0.3125,-2.875 c 0,0.109375 0.09375,0.109375 0.109375,0.109375 0.109375,0 0.109375,-0.015625 0.171875,-0.234375 0.171875,-0.703125 0.375,-1.1875 0.734375,-1.1875 0.171875,0 0.3125,0.078125 0.3125,0.453125 0,0.234375 -0.03125,0.34375 -0.078125,0.515625 z m 1.75,-4.328125 C 2.265625,-3.375 2.546875,-3.65625 2.71875,-3.8125 c 0.359375,-0.296875 0.640625,-0.375 0.8125,-0.375 0.390625,0 0.640625,0.34375 0.640625,0.9375 0,0.59375 -0.328125,1.734375 -0.515625,2.109375 -0.34375,0.703125 -0.8125,1.03125 -1.1875,1.03125 C 1.8125,-0.109375 1.6875,-0.9375 1.6875,-1 c 0,-0.015625 0,-0.03125 0.03125,-0.15625 z m 0,0"
             transform="translate(251.364,110.99)"
             id="path1778" />
        </g>
        <g
           style="fill:#000000;fill-opacity:1"
           id="g1784">
          <path
             style="stroke:none"
             d="m 2.015625,-3.296875 c 0.0625,-0.109375 0.0625,-0.171875 0.0625,-0.21875 0,-0.21875 -0.1875,-0.375 -0.40625,-0.375 -0.265625,0 -0.34375,0.21875 -0.375,0.328125 L 0.375,-0.546875 c -0.015625,0.015625 -0.046875,0.09375 -0.046875,0.109375 0,0.078125 0.21875,0.15625 0.28125,0.15625 0.046875,0 0.046875,-0.015625 0.09375,-0.125 z m 0,0"
             transform="translate(256.376,107.375)"
             id="path1782" />
        </g>
        <g
           style="fill:#000000;fill-opacity:1"
           id="g1790">
          <path
             style="stroke:none"
             d="m 2.875,-2.5 c 0,-0.765625 -0.109375,-1.96875 -0.65625,-3.109375 -0.59375,-1.21875 -1.453125,-1.875 -1.546875,-1.875 -0.0625,0 -0.109375,0.046875 -0.109375,0.109375 0,0.03125 0,0.046875 0.1875,0.234375 0.984375,0.984375 1.546875,2.5625 1.546875,4.640625 0,1.71875 -0.359375,3.46875 -1.59375,4.71875 C 0.5625,2.34375 0.5625,2.359375 0.5625,2.390625 0.5625,2.453125 0.609375,2.5 0.671875,2.5 0.765625,2.5 1.671875,1.8125 2.25,0.546875 2.765625,-0.546875 2.875,-1.65625 2.875,-2.5 Z m 0,0"
             transform="translate(259.171,110.99)"
             id="path1786" />
          <path
             style="stroke:none"
             d="M 1.578125,-7.484375 H 0.21875 v 0.40625 H 1.1875 V 2.09375 H 0.21875 V 2.5 h 1.359375 z m 0,0"
             transform="translate(263.03649,110.99)"
             id="path1788" />
        </g>
        <g
           style="fill:#000000;fill-opacity:1"
           id="g1794">
          <path
             style="stroke:none"
             d="m 6.84375,-3.265625 c 0.15625,0 0.34375,0 0.34375,-0.1875 C 7.1875,-3.65625 7,-3.65625 6.859375,-3.65625 h -5.96875 c -0.140625,0 -0.328125,0 -0.328125,0.203125 0,0.1875 0.1875,0.1875 0.328125,0.1875 z m 0.015625,1.9375 c 0.140625,0 0.328125,0 0.328125,-0.203125 0,-0.1875 -0.1875,-0.1875 -0.34375,-0.1875 H 0.890625 c -0.140625,0 -0.328125,0 -0.328125,0.1875 0,0.203125 0.1875,0.203125 0.328125,0.203125 z m 0,0"
             transform="translate(268.55577,110.99)"
             id="path1792" />
        </g>
        <g
           style="fill:#000000;fill-opacity:1"
           id="g1798">
          <path
             style="stroke:none"
             d="m 4.578125,-3.1875 c 0,-0.796875 -0.046875,-1.59375 -0.390625,-2.328125 -0.453125,-0.96875 -1.28125,-1.125 -1.6875,-1.125 -0.609375,0 -1.328125,0.265625 -1.75,1.1875 -0.3125,0.6875 -0.359375,1.46875 -0.359375,2.265625 0,0.75 0.03125,1.640625 0.453125,2.40625 0.421875,0.796875 1.15625,1 1.640625,1 0.53125,0 1.296875,-0.203125 1.734375,-1.15625 0.3125,-0.6875 0.359375,-1.46875 0.359375,-2.25 z M 2.484375,0 C 2.09375,0 1.5,-0.25 1.328125,-1.203125 1.21875,-1.796875 1.21875,-2.71875 1.21875,-3.3125 c 0,-0.640625 0,-1.296875 0.078125,-1.828125 0.1875,-1.1875 0.9375,-1.28125 1.1875,-1.28125 0.328125,0 0.984375,0.1875 1.171875,1.171875 0.109375,0.5625 0.109375,1.3125 0.109375,1.9375 0,0.75 0,1.421875 -0.109375,2.0625 C 3.5,-0.296875 2.9375,0 2.484375,0 Z m 0,0"
             transform="translate(279.06631,110.99)"
             id="path1796" />
        </g>
      </g>
    </g>
    <text
       xml:space="preserve"
       style="font-style:normal;font-variant:normal;font-weight:normal;font-stretch:normal;font-size:8.81944px;line-height:1.25;font-family:serif;-inkscape-font-specification:'serif, Normal';font-variant-ligatures:normal;font-variant-caps:normal;font-variant-numeric:normal;font-variant-east-asian:normal;fill:#000000;fill-opacity:1;stroke:none;stroke-width:0.264583"
       x="108.13168"
       y="172.10382"
       id="text5935"><tspan
         sodipodi:role="line"
         id="tspan5933"
         style="font-style:normal;font-variant:normal;font-weight:normal;font-stretch:normal;font-size:8.81944444px;font-family:serif;-inkscape-font-specification:'serif, Normal';font-variant-ligatures:normal;font-variant-caps:normal;font-variant-numeric:normal;font-variant-east-asian:normal;stroke-width:0.264583"
         x="108.13168"
         y="172.10382">1</tspan></text>
    <text
       xml:space="preserve"
       style="font-style:normal;font-variant:normal;font-weight:normal;font-stretch:normal;font-size:17.9539px;line-height:1.25;font-family:serif;-inkscape-font-specification:'serif, Normal';font-variant-ligatures:normal;font-variant-caps:normal;font-variant-numeric:normal;font-variant-east-asian:normal;fill:#000000;fill-opacity:1;stroke:none;stroke-width:0.448847"
       x="257.55014"
       y="38.385555"
       id="text6731"><tspan
         sodipodi:role="line"
         id="tspan6729"
         style="font-style:normal;font-variant:normal;font-weight:normal;font-stretch:normal;font-size:17.9539px;font-family:serif;-inkscape-font-specification:'serif, Normal';font-variant-ligatures:normal;font-variant-caps:normal;font-variant-numeric:normal;font-variant-east-asian:normal;stroke-width:0.448847"
         x="257.55014"
         y="38.385555">CSL</tspan><tspan
         sodipodi:role="line"
         style="font-style:normal;font-variant:normal;font-weight:normal;font-stretch:normal;font-size:17.9539px;font-family:serif;-inkscape-font-specification:'serif, Normal';font-variant-ligatures:normal;font-variant-caps:normal;font-variant-numeric:normal;font-variant-east-asian:normal;stroke-width:0.448847"
         x="257.55014"
         y="60.82793"
         id="tspan2652" /></text>
    <g
       ns1:text="$p'$"
       transform="matrix(2.0216249,0,0,2.0216249,48.938384,-19.803281)"
       id="g17160">
      <g
         id="g17158">
        <g
           style="fill:#000000;fill-opacity:1"
           id="g17152">
          <path
             style="stroke:none"
             d="M 0.453125,1.21875 C 0.375,1.5625 0.34375,1.625 -0.09375,1.625 c -0.109375,0 -0.21875,0 -0.21875,0.1875 0,0.078125 0.046875,0.125 0.125,0.125 0.265625,0 0.5625,-0.03125 0.828125,-0.03125 0.34375,0 0.671875,0.03125 1,0.03125 0.046875,0 0.171875,0 0.171875,-0.203125 C 1.8125,1.625 1.71875,1.625 1.578125,1.625 c -0.5,0 -0.5,-0.0625 -0.5,-0.15625 0,-0.125 0.421875,-1.75 0.484375,-2 0.125,0.296875 0.40625,0.640625 0.921875,0.640625 1.15625,0 2.40625,-1.453125 2.40625,-2.921875 0,-0.9375 -0.578125,-1.59375 -1.328125,-1.59375 -0.5,0 -0.984375,0.359375 -1.3125,0.75 -0.09375,-0.546875 -0.53125,-0.75 -0.890625,-0.75 -0.46875,0 -0.65625,0.390625 -0.734375,0.5625 C 0.4375,-3.5 0.3125,-2.90625 0.3125,-2.875 c 0,0.109375 0.09375,0.109375 0.109375,0.109375 0.109375,0 0.109375,-0.015625 0.171875,-0.234375 0.171875,-0.703125 0.375,-1.1875 0.734375,-1.1875 0.171875,0 0.3125,0.078125 0.3125,0.453125 0,0.234375 -0.03125,0.34375 -0.078125,0.515625 z m 1.75,-4.328125 C 2.265625,-3.375 2.546875,-3.65625 2.71875,-3.8125 c 0.359375,-0.296875 0.640625,-0.375 0.8125,-0.375 0.390625,0 0.640625,0.34375 0.640625,0.9375 0,0.59375 -0.328125,1.734375 -0.515625,2.109375 -0.34375,0.703125 -0.8125,1.03125 -1.1875,1.03125 C 1.8125,-0.109375 1.6875,-0.9375 1.6875,-1 c 0,-0.015625 0,-0.03125 0.03125,-0.15625 z m 0,0"
             transform="translate(178.585,110.99)"
             id="path17150" />
        </g>
        <g
           style="fill:#000000;fill-opacity:1"
           id="g17156">
          <path
             style="stroke:none"
             d="m 2.015625,-3.296875 c 0.0625,-0.109375 0.0625,-0.171875 0.0625,-0.21875 0,-0.21875 -0.1875,-0.375 -0.40625,-0.375 -0.265625,0 -0.34375,0.21875 -0.375,0.328125 L 0.375,-0.546875 c -0.015625,0.015625 -0.046875,0.09375 -0.046875,0.109375 0,0.078125 0.21875,0.15625 0.28125,0.15625 0.046875,0 0.046875,-0.015625 0.09375,-0.125 z m 0,0"
             transform="translate(183.597,107.375)"
             id="path17154" />
        </g>
      </g>
    </g>
    <g
       ns1:text="$q$"
       transform="matrix(2.357823,0,0,2.357823,-374.21803,-239.63183)"
       id="g17496">
      <g
         id="g17494">
        <g
           style="fill:#000000;fill-opacity:1"
           id="g17492">
          <path
             style="stroke:none"
             d="m 4.5,-4.296875 c 0,-0.046875 -0.03125,-0.09375 -0.09375,-0.09375 -0.109375,0 -0.515625,0.390625 -0.671875,0.6875 C 3.515625,-4.25 3.125,-4.40625 2.796875,-4.40625 c -1.171875,0 -2.390625,1.46875 -2.390625,2.921875 0,0.96875 0.578125,1.59375 1.3125,1.59375 0.421875,0 0.8125,-0.234375 1.171875,-0.59375 -0.09375,0.34375 -0.421875,1.6875 -0.453125,1.78125 -0.078125,0.28125 -0.15625,0.3125 -0.71875,0.328125 -0.125,0 -0.21875,0 -0.21875,0.203125 0,0 0,0.109375 0.125,0.109375 0.3125,0 0.671875,-0.03125 1,-0.03125 0.328125,0 0.6875,0.03125 1.03125,0.03125 0.046875,0 0.171875,0 0.171875,-0.203125 C 3.828125,1.625 3.734375,1.625 3.5625,1.625 3.09375,1.625 3.09375,1.5625 3.09375,1.46875 3.09375,1.390625 3.109375,1.328125 3.125,1.25 Z m -2.75,4.1875 c -0.609375,0 -0.640625,-0.765625 -0.640625,-0.9375 0,-0.484375 0.28125,-1.5625 0.453125,-1.984375 0.3125,-0.734375 0.828125,-1.15625 1.234375,-1.15625 0.65625,0 0.796875,0.8125 0.796875,0.875 0,0.0625 -0.546875,2.25 -0.578125,2.28125 C 2.859375,-0.75 2.296875,-0.109375 1.75,-0.109375 Z m 0,0"
             transform="translate(178.585,110.99)"
             id="path17490" />
        </g>
      </g>
    </g>
  </g>
</svg>
